<?xml version="1.0" standalone="no"?>
<!DOCTYPE svg PUBLIC "-//W3C//DTD SVG 20010904//EN"
 "http://www.w3.org/TR/2001/REC-SVG-20010904/DTD/svg10.dtd">
<svg version="1.0" xmlns="http://www.w3.org/2000/svg"
 width="474.000000pt" height="483.000000pt" viewBox="0 0 474.000000 483.000000"
 preserveAspectRatio="xMidYMid meet">

<g transform="translate(0.000000,483.000000) scale(0.100000,-0.100000)"
fill="#000000" stroke="none">
<path d="M0 2415 l0 -2415 2370 0 2370 0 0 2415 0 2415 -2370 0 -2370 0 0
-2415z m3250 1875 c457 -128 952 -681 1154 -1290 69 -207 87 -307 93 -512 5
-159 3 -188 -16 -272 -48 -208 -161 -366 -319 -445 -24 -12 -80 -31 -125 -43
-158 -39 -325 -11 -532 92 -127 63 -209 120 -314 219 -58 54 -64 62 -54 83 26
56 197 262 214 256 4 -2 29 -23 56 -48 175 -165 379 -268 507 -257 110 10 182
88 212 227 20 95 13 288 -15 410 -125 546 -547 1099 -938 1229 -75 25 -162 27
-209 5 -48 -23 -98 -82 -125 -150 -22 -54 -24 -74 -23 -224 0 -139 4 -180 23
-260 47 -190 141 -414 235 -559 25 -39 46 -75 46 -79 0 -4 -23 -30 -51 -57
-40 -39 -111 -125 -186 -224 -5 -6 -25 23 -102 144 -131 206 -253 503 -302
730 -26 123 -37 376 -20 482 16 103 55 218 98 292 78 131 215 234 356 267 82
18 239 11 337 -16z m-2273 -1251 c201 -51 437 -200 623 -395 434 -454 686
-1077 639 -1572 -18 -178 -80 -329 -180 -436 -73 -78 -136 -120 -231 -153
-106 -37 -266 -37 -392 1 -462 139 -928 656 -1141 1267 -70 200 -106 390 -104
549 l2 95 8 -81 c26 -276 178 -494 395 -568 26 -9 58 -16 70 -16 19 0 32 -18
74 -101 94 -189 225 -372 370 -517 112 -112 196 -173 319 -234 94 -47 112 -52
186 -56 67 -4 88 -1 121 16 108 55 151 180 141 410 -8 178 -44 324 -130 529
-207 489 -652 923 -949 923 -120 0 -192 -63 -227 -200 -24 -97 -33 -98 -26 -5
12 163 46 311 108 472 34 87 35 88 73 94 56 9 167 -1 251 -22z"/>
</g>
</svg>
